<svg xmlns="http://www.w3.org/2000/svg" x="0px" y="0px"
     width="22" height="22"
     viewBox="0 0 50 50"
     style="fill:#c0392b;"><g id="surface1"><path style=" " d="M 19.546875 3 C 9.871094 3 2 10.050781 2 18.714844 C 2 22.785156 3.769531 26.730469 6.875 29.640625 C 6.921875 29.6875 7.101563 29.824219 7.101563 29.824219 C 7.316406 30 7.53125 30.171875 7.722656 30.3125 C 6.9375 32.648438 4.195313 34.546875 2.941406 35 C 2.113281 35.300781 1.839844 36.066406 2.148438 36.453125 C 2.617188 37.042969 4.046875 36.988281 5.421875 36.988281 C 9.964844 36.988281 15.699219 33.671875 15.699219 33.671875 C 16.773438 33.890625 17.988281 34 19.394531 34 C 29.265625 34 37 27.285156 37 18.714844 C 37 10.050781 29.171875 3 19.546875 3 Z M 11 12 L 28 12 L 28 14 L 11 14 Z M 11 17 L 28 17 L 28 19 L 11 19 Z M 38.785156 21.191406 C 38.394531 23.683594 37.429688 25.988281 36 28 L 39 28 L 39 30 L 34.339844 30 C 33.238281 31.140625 31.96875 32.152344 30.5625 33 L 39 33 L 39 35 L 26.03125 35 C 23.960938 35.636719 21.738281 36 19.394531 36 C 18.390625 36 17.480469 35.945313 16.628906 35.839844 C 18.488281 40.746094 24.4375 44 32.125 44 C 33.277344 44 34.285156 43.929688 35.183594 43.792969 C 35.222656 43.785156 38 46.996094 44.03125 46.996094 C 47.433594 46.894531 47.953125 45.871094 47.984375 45.503906 C 48.066406 44.675781 44.457031 44.4375 42.789063 41.75 C 43.066406 41.554688 43.386719 41.324219 43.59375 41.164063 C 46.394531 38.851563 47.984375 35.738281 47.984375 32.511719 C 47.984375 27.605469 44.316406 23.226563 38.785156 21.191406 Z M 11 22 L 23 22 L 23 24 L 11 24 Z "></path></g></svg>