<svg xmlns="http://www.w3.org/2000/svg" x="0px" y="0px"
     width="32" height="32"
     viewBox="0 0 50 50"
     style="fill:#9b59b6;"><g id="surface1"><path style=" " d="M 14 0 C 6.28125 0 0 6.28125 0 14 C 0 19.953125 3.75 25.042969 9 27.0625 L 9 43 L 17 43 L 17 39 L 27.90625 39 L 29 41 L 27.90625 43 L 48 43 L 48 17 C 48 16.449219 47.554688 16 47 16 L 27.84375 16 C 27.9375 15.34375 28 14.679688 28 14 C 28 6.28125 21.71875 0 14 0 Z M 14 2 C 20.617188 2 26 7.382813 26 14 C 26 20.617188 20.617188 26 14 26 C 7.382813 26 2 20.617188 2 14 C 2 7.382813 7.382813 2 14 2 Z M 14 5 C 13.449219 5 13 5.449219 13 6 L 13 14 C 13 14.011719 13 14.019531 13 14.03125 C 13.003906 14.238281 13.089844 14.425781 13.21875 14.59375 C 13.265625 14.65625 13.316406 14.699219 13.375 14.75 C 13.390625 14.765625 13.386719 14.800781 13.40625 14.8125 L 17.40625 17.8125 C 17.585938 17.949219 17.792969 18 18 18 C 18.304688 18 18.617188 17.855469 18.8125 17.59375 C 19.144531 17.152344 19.035156 16.519531 18.59375 16.1875 L 15 13.5 L 15 6 C 15 5.449219 14.550781 5 14 5 Z M 8 45 C 7.449219 45 7 45.445313 7 46 L 7 49 C 7 49.554688 7.449219 50 8 50 L 49 50 C 49.554688 50 50 49.554688 50 49 L 50 46 C 50 45.445313 49.554688 45 49 45 Z "></path></g></svg>