<svg xmlns="http://www.w3.org/2000/svg" x="0px" y="0px"
     width="22" height="22"
     viewBox="0 0 50 50"
     style="fill:#e74c3c;">    <path d="M 25 2 C 12.317 2 2 12.317 2 25 C 2 37.683 12.317 48 25 48 C 37.683 48 48 37.683 48 25 C 48 12.317 37.683 2 25 2 z M 32.992188 14.998047 C 33.38125 14.995703 33.754469 15.224469 33.917969 15.605469 L 35.087891 18.335938 L 37.550781 17.103516 C 38.045781 16.858516 38.644578 17.056781 38.892578 17.550781 C 39.141578 18.046781 38.941266 18.646531 38.447266 18.894531 L 35.878906 20.179688 L 36.917969 22.607422 C 37.135969 23.114422 36.899578 23.701922 36.392578 23.919922 C 36.265578 23.974922 36.132 24 36 24 C 35.612 24 35.242078 23.773531 35.080078 23.394531 L 34.087891 21.074219 L 32.447266 21.894531 C 32.304266 21.965531 32.151953 22 32.001953 22 C 31.634953 22 31.281469 21.798266 31.105469 21.447266 C 30.858469 20.953266 31.058734 20.352469 31.552734 20.105469 L 33.296875 19.232422 L 32.080078 16.392578 C 31.862078 15.885578 32.098469 15.298078 32.605469 15.080078 C 32.731469 15.025078 32.8625 14.998828 32.992188 14.998047 z M 18.1875 15.025391 C 20.279952 14.95161 24.157187 19.555 27.25 23.757812 L 28.552734 23.105469 C 29.046734 22.859469 29.647531 23.058734 29.894531 23.552734 C 30.141531 24.046734 29.941266 24.647531 29.447266 24.894531 L 28.435547 25.400391 C 30.397547 28.169391 31.823375 30.426281 31.859375 30.488281 C 32.141375 30.962281 31.985719 31.577375 31.511719 31.859375 C 31.036719 32.142375 30.423625 31.986719 30.140625 31.511719 C 29.209625 29.946719 27.978203 28.114063 26.658203 26.289062 L 18.574219 30.330078 C 18.905219 32.382078 19.364687 34.221953 19.929688 35.626953 C 20.135687 36.139953 19.886047 36.721734 19.373047 36.927734 C 19.250047 36.977734 19.124 37 19 37 C 18.604 37 18.229266 36.763047 18.072266 36.373047 C 17.515266 34.988047 17.057938 33.221672 16.710938 31.263672 L 15.447266 31.894531 C 15.304266 31.966531 15.151953 32 15.001953 32 C 14.634953 32 14.281469 31.798266 14.105469 31.447266 C 13.858469 30.953266 14.058734 30.352469 14.552734 30.105469 L 16.394531 29.183594 C 16.143531 27.205594 16 25.102 16 23 C 16 15.804 17.303922 15.294516 17.794922 15.103516 C 17.917797 15.055516 18.048003 15.030309 18.1875 15.025391 z M 18.580078 17.09375 C 18.317078 17.79275 18 19.715 18 23 C 18 24.777 18.102109 26.553281 18.287109 28.238281 L 25.449219 24.65625 C 22.690219 21.00025 19.815078 17.70875 18.580078 17.09375 z"></path></svg>